<svg width="28" height="28" viewBox="0 0 28 28" fill="none" xmlns="http://www.w3.org/2000/svg">
<path d="M0.5 14C0.5 6.54416 6.54416 0.5 14 0.5C21.4558 0.5 27.5 6.54416 27.5 14C27.5 21.4558 21.4558 27.5 14 27.5C6.54416 27.5 0.5 21.4558 0.5 14Z" fill="white"/>
<path d="M0.5 14C0.5 6.54416 6.54416 0.5 14 0.5C21.4558 0.5 27.5 6.54416 27.5 14C27.5 21.4558 21.4558 27.5 14 27.5C6.54416 27.5 0.5 21.4558 0.5 14Z" stroke="#A5A5A5"/>
<path d="M20.3535 9.85403L12.3535 17.854C12.3071 17.9005 12.252 17.9374 12.1913 17.9626C12.1306 17.9877 12.0655 18.0007 11.9998 18.0007C11.9341 18.0007 11.869 17.9877 11.8083 17.9626C11.7476 17.9374 11.6925 17.9005 11.646 17.854L8.14604 14.354C8.05222 14.2602 7.99951 14.133 7.99951 14.0003C7.99951 13.8676 8.05222 13.7403 8.14604 13.6465C8.23986 13.5527 8.36711 13.5 8.49979 13.5C8.63247 13.5 8.75972 13.5527 8.85354 13.6465L11.9998 16.7934L19.646 9.14653C19.7399 9.05271 19.8671 9 19.9998 9C20.1325 9 20.2597 9.05271 20.3535 9.14653C20.4474 9.24035 20.5001 9.3676 20.5001 9.50028C20.5001 9.63296 20.4474 9.76021 20.3535 9.85403Z" fill="#A5A5A5"/>
</svg>
