<svg width="13" height="9" viewBox="0 0 13 9" fill="none" xmlns="http://www.w3.org/2000/svg">
<path d="M12.3535 0.854028L4.35354 8.85403C4.3071 8.90052 4.25196 8.9374 4.19126 8.96256C4.13056 8.98772 4.0655 9.00067 3.99979 9.00067C3.93408 9.00067 3.86902 8.98772 3.80832 8.96256C3.74762 8.9374 3.69248 8.90052 3.64604 8.85403L0.14604 5.35403C0.0522194 5.26021 -0.000488281 5.13296 -0.000488281 5.00028C-0.000488281 4.8676 0.0522194 4.74035 0.14604 4.64653C0.23986 4.55271 0.367108 4.5 0.49979 4.5C0.632472 4.5 0.759719 4.55271 0.85354 4.64653L3.99979 7.7934L11.646 0.146528C11.7399 0.0527074 11.8671 -9.88557e-10 11.9998 0C12.1325 9.88558e-10 12.2597 0.0527074 12.3535 0.146528C12.4474 0.240348 12.5001 0.367596 12.5001 0.500278C12.5001 0.63296 12.4474 0.760208 12.3535 0.854028Z" fill="white"/>
</svg>
