<svg width="33" height="32" viewBox="0 0 33 32" fill="none" xmlns="http://www.w3.org/2000/svg">
<rect x="0.5" width="32" height="32" rx="16" fill="white"/>
<path fill-rule="evenodd" clip-rule="evenodd" d="M25.7968 16.2191C25.7968 15.5324 25.7352 14.8722 25.6208 14.2383H16.5V17.9843H21.7119C21.4874 19.1948 20.8051 20.2205 19.7794 20.9072V23.337H22.9092C24.7404 21.6511 25.7968 19.1684 25.7968 16.2191Z" fill="#4285F4"/>
<path fill-rule="evenodd" clip-rule="evenodd" d="M16.4996 25.6841C19.1144 25.6841 21.3065 24.8169 22.9088 23.3378L19.779 20.908C18.9119 21.489 17.8026 21.8324 16.4996 21.8324C13.9773 21.8324 11.8424 20.1288 11.0809 17.8398H7.84546V20.3489C9.43895 23.5139 12.714 25.6841 16.4996 25.6841Z" fill="#34A853"/>
<path fill-rule="evenodd" clip-rule="evenodd" d="M11.0811 17.8414C10.8874 17.2604 10.7774 16.6397 10.7774 16.0014C10.7774 15.3632 10.8874 14.7425 11.0811 14.1614V11.6523H7.84572C7.18984 12.9597 6.81567 14.4388 6.81567 16.0014C6.81567 17.5641 7.18984 19.0432 7.84572 20.3505L11.0811 17.8414Z" fill="#FBBC05"/>
<path fill-rule="evenodd" clip-rule="evenodd" d="M16.4996 10.1681C17.9214 10.1681 19.198 10.6567 20.2016 11.6163L22.9792 8.8387C21.3021 7.27602 19.11 6.31641 16.4996 6.31641C12.714 6.31641 9.43895 8.48655 7.84546 11.6515L11.0809 14.1606C11.8424 11.8716 13.9773 10.1681 16.4996 10.1681Z" fill="#EA4335"/>
</svg>
