<?xml version="1.0" encoding="UTF-8"?>
<svg version="1.1" xmlns="http://www.w3.org/2000/svg" width="50" height="50">
<path d="M0 0 C0.66 0 1.32 0 2 0 C3.33203125 1.9765625 3.33203125 1.9765625 4.8125 4.625 C13.73795187 19.75576603 27.47217205 25.72303141 44 30 C53.52590175 32.2124675 63.22979633 33.56334285 73 34 C73.90234375 34.04125 74.8046875 34.0825 75.734375 34.125 C99.64679245 34.65345121 127.0546888 30.64648981 146.125 15.1875 C150.63452787 10.8510826 153.36599351 5.61921384 156 0 C156.66 0 157.32 0 158 0 C160.86015908 10.29284702 159.84189498 23.12800029 156 33 C155.74476563 33.68964844 155.48953125 34.37929688 155.2265625 35.08984375 C150.59481835 45.81934281 142.03099011 52.69067405 131.43408203 57.06542969 C125.05229877 59.51572721 118.56290588 61.69176733 112.06274414 63.80493164 C104.68586225 66.23681645 98.76782073 68.44146667 93.6875 74.5625 C93.19636719 75.14128906 92.70523438 75.72007813 92.19921875 76.31640625 C89.10967356 80.65384592 89.56386346 85.91702687 90 91 C91.94494366 96.52773461 95.02305167 99.04958558 99.8125 102.1875 C105.97582707 104.47673577 110.84872555 104.33741265 116.89453125 101.99609375 C122.21002106 99.4813444 125.03813143 96.49634428 127.375 91.1875 C129.59354578 84.89540588 130.14710723 79.94346377 127.1875 73.75 C125.66364564 70.99513162 124.02026373 68.42431648 122 66 C122.99 64.68 123.98 63.36 125 62 C130.06189764 63.87477691 132.98316783 67.96633567 135.3125 72.625 C137.15361785 81.66321491 136.61371612 89.91578946 132 98 C127.45782312 104.64652718 122.3340078 108.93319844 114.36328125 110.52734375 C106.87609482 111.45671557 100.51395661 110.86032997 93.8125 107.3125 C86.97073066 101.68704521 82.96951055 96.18346527 82.03515625 87.1796875 C81.89732515 78.63415938 85.47512081 72.65312517 91.0625 66.4375 C98.72829108 59.12379118 109.52874197 56.79562096 119.35644531 53.58813477 C132.52605061 49.24282752 142.24203976 44.60697472 148.77734375 31.90234375 C150.54880536 27.69724478 151.43211545 23.51370305 152 19 C151.61972656 19.4125 151.23945313 19.825 150.84765625 20.25 C132.49475834 38.24146229 101.24730279 41.40218025 76.75146484 41.23461914 C52.57027341 40.72767042 25.81985376 36.31053993 7 20 C7.45072439 28.11303909 10.13978969 34.71075814 15.5 40.875 C16.7375 41.926875 16.7375 41.926875 18 43 C18.75539063 43.64710937 19.51078125 44.29421875 20.2890625 44.9609375 C23.08939677 47.0672408 25.65267245 48.38392598 28.875 49.75 C29.45725342 49.9982251 30.03950684 50.2464502 30.6394043 50.50219727 C34.61135584 52.14824484 38.63290069 53.56853827 42.71484375 54.91796875 C43.7198291 55.25280273 44.72481445 55.58763672 45.76025391 55.93261719 C47.74789622 56.58700335 49.74094864 57.22524939 51.73974609 57.84472656 C61.06931909 60.90596766 69.27579538 66.12722915 74 75 C76.90301021 82.60312199 76.77684491 89.38073974 73.9609375 96.8984375 C70.64081935 104.15950891 65.22353345 107.16702048 58 110 C49.01339011 112.1390284 41.83820818 110.56140433 33.8125 106.3125 C25.89583121 99.80323899 22.67944467 92.11500205 21.5625 82.0625 C21.85094474 75.61182667 24.13910226 68.43653421 28.75 63.8125 C29.4925 63.214375 30.235 62.61625 31 62 C32.32 62.66 33.64 63.32 35 64 C35 68 35 68 33.125 70.3125 C29.69667514 74.64832262 28.7398339 78.92763708 29.0625 84.375 C29.95780252 90.33690084 32.28871152 95.61270197 36.86328125 99.640625 C42.61431008 103.5267571 47.85404176 104.55639643 54.6875 103.25 C58.07570597 102.40871076 60.34845539 101.33335926 63 99 C63.66 99 64.32 99 65 99 C65.68346682 97.34015202 66.34588315 95.67163195 67 94 C67.391875 93.071875 67.78375 92.14375 68.1875 91.1875 C69.63134798 85.5231733 68.78395293 80.93188416 66.0625 75.875 C59.05827629 65.97845298 45.71802627 63.30947592 34.78710938 59.87695312 C20.75353649 55.28749596 10.74779482 49.31046294 3.75 36.1875 C-1.69079494 24.70770753 -2.31525591 12.44450053 0 0 Z " fill="#0000A5" transform="translate(46,2)"/>
<path d="M0 0 C1.65 0.33 3.3 0.66 5 1 C6.64363748 5.05223832 5.22261872 8.5108859 4.0625 12.5 C0.50910388 25.78648072 1.08724418 38.99991179 7.9296875 51.265625 C12.4816869 58.6418576 17.84322418 61.98660628 26 65 C35.50402718 67.09701761 44.71348189 65.40923819 54 63 C54.29390625 63.90878906 54.29390625 63.90878906 54.59375 64.8359375 C58.22988829 75.02339391 64.59654007 82.34726089 73 89 C80.81050804 82.62407507 86.88682523 76.27901039 91 67 C91.66105466 65.66387539 92.32628188 64.32978424 93 63 C93.94359375 63.22816406 94.8871875 63.45632812 95.859375 63.69140625 C107.54420611 66.30758832 118.26341187 67.42537127 129 61 C137.11684202 55.82259048 141.49502249 47.28145634 143.62280273 38.07519531 C144.22879423 34.74126152 144.38143439 31.44015489 144.375 28.0625 C144.37693359 26.98464233 144.37693359 26.98464233 144.37890625 25.88500977 C144.22172524 17.64640293 142.21338094 9.89505078 140 2 C143 0 143 0 146 0 C152.03737432 15.09343579 154.00727881 32.74123318 148.25390625 48.27734375 C143.74936951 58.05822258 136.92401522 66.21043048 126.8125 70.4375 C116.91554763 73.88851104 107.26092778 73.32399068 97 72 C96.56429687 72.71285156 96.12859375 73.42570312 95.6796875 74.16015625 C84.86626916 91.55056713 84.86626916 91.55056713 76 96 C72.28316545 96.5182837 70.6186774 96.41308908 67.47265625 94.3125 C66.67730469 93.549375 65.88195312 92.78625 65.0625 92 C63.77859375 90.76830078 63.77859375 90.76830078 62.46875 89.51171875 C50 76.82594937 50 76.82594937 50 71 C49.46632812 71.144375 48.93265625 71.28875 48.3828125 71.4375 C36.42620819 74.41630799 24.41689062 73.55967232 13.453125 67.6640625 C3.88039252 61.17045735 -1.60921435 51.36634611 -4.3125 40.3125 C-6.39628987 27.48606525 -5.94206035 11.8841207 0 0 Z " fill="#0000A5" transform="translate(52,54)"/>
<path d="M0 0 C4.39063739 2.15540381 7.47901962 4.79836603 10 9 C11.15023082 13.325183 11.55470058 16.72418866 9.75 20.875 C6.72563048 24.5474487 4.96028543 26.53039649 0.0546875 27.30859375 C-5.83571317 27.65695078 -9.40092822 26.23055384 -14.109375 22.69921875 C-16.79978062 20.2811889 -18.03693857 18.50829519 -19 15 C-19.2660862 9.99757949 -18.7629958 6.93907175 -15.5625 3 C-10.65797663 -0.82792068 -6.07040189 -0.61820217 0 0 Z M-5 9 C-5.33 10.65 -5.66 12.3 -6 14 C-3.75256794 16.14835964 -3.75256794 16.14835964 -1 18 C1.26424351 17.87436418 1.26424351 17.87436418 3 17 C2.6641593 13.89347355 2.40950721 12.39585697 0.125 10.1875 C-2.03075628 8.75608932 -2.03075628 8.75608932 -5 9 Z " fill="#9595FC" transform="translate(98,72)"/>
<path d="M0 0 C3.2138627 1.60693135 5.16978419 2.94336169 7.375 5.75 C8.74645926 10.68725334 8.73758318 15.1461231 6.5 19.75 C3.88051078 23.75250626 0.5510535 25.69303079 -4 27 C-8.6116431 27.61769344 -12.54744221 27.52539324 -16.9375 25.9375 C-19.84140413 23.20959006 -20.85809719 20.8063427 -22 17 C-21.90439866 11.55072367 -20.50825419 8.15451155 -17 4 C-11.57596793 -0.12226438 -6.75740697 -1.11324662 0 0 Z M-13 12 C-13.97733657 13.98775876 -13.97733657 13.98775876 -14 16 C-13.34 16.66 -12.68 17.32 -12 18 C-8.84029684 17.83796394 -7.41572667 17.40186911 -5.125 15.1875 C-3.770449 13.06939033 -3.770449 13.06939033 -4.3125 10.75 C-4.539375 10.1725 -4.76625 9.595 -5 9 C-9.24894725 9 -10.07304769 9.17397708 -13 12 Z " fill="#9595FC" transform="translate(163,72)"/>
<path d="M0 0 C4.02969301 1.343231 4.37257161 3.01337068 6.25 6.75 C7.06210938 8.32007812 7.06210938 8.32007812 7.890625 9.921875 C9.12584516 13.34917602 9.18442205 14.60751513 8 18 C7.04085627 19.96876871 6.0166077 21.90684171 4.9375 23.8125 C4.38964844 24.78832031 3.84179688 25.76414063 3.27734375 26.76953125 C2.85582031 27.50558594 2.43429688 28.24164063 2 29 C-0.5709213 26.63041591 -2.39670471 24.08487451 -4.25 21.125 C-4.79140625 20.28195313 -5.3328125 19.43890625 -5.890625 18.5703125 C-7.25118499 15.41802914 -7.09439072 14.22374824 -6 11 C-5.04085627 9.03123129 -4.0166077 7.09315829 -2.9375 5.1875 C-2.11572266 3.72376953 -2.11572266 3.72376953 -1.27734375 2.23046875 C-0.85582031 1.49441406 -0.43429688 0.75835937 0 0 Z " fill="#9595FC" transform="translate(124,109)"/>
</svg>
