<?xml version="1.0" encoding="UTF-8"?>
<!DOCTYPE svg PUBLIC "-//W3C//DTD SVG 1.1//EN" "http://www.w3.org/Graphics/SVG/1.1/DTD/svg11.dtd">
<!-- Creator: CorelDRAW (Evaluation Version) -->
<svg xmlns="http://www.w3.org/2000/svg" xml:space="preserve" width="50px" height="50px" version="1.1" style="shape-rendering:geometricPrecision; text-rendering:geometricPrecision; image-rendering:optimizeQuality; fill-rule:evenodd; clip-rule:evenodd"
viewBox="0 0 8500 11000"
 xmlns:xlink="http://www.w3.org/1999/xlink"
 xmlns:xodm="http://www.corel.com/coreldraw/odm/2003"
 enable-background="new 0 0 250 400">
 <defs>
  <style type="text/css">
   <![CDATA[
    .fil2 {fill:black;fill-rule:nonzero}
    .fil0 {fill:#0000A5;fill-rule:nonzero}
    .fil1 {fill:#9595FC;fill-rule:nonzero}
   ]]>
  </style>
 </defs>
 <g id="Layer_x0020_1">
  <metadata id="CorelCorpID_0Corel-Layer"/>
  <path class="fil0" d="M3424.93 6742.07c20.74,-10.5 41.47,-21 80.16,-28.44 152.07,25.17 246.71,-56.03 220.33,-170.57 0,0 1.77,1.97 10.93,1.44 100.86,2.07 107.46,-43.32 72.19,-112.31 8.48,-21.3 16.97,-42.61 37.85,-72.32 48.89,-69.21 208.04,-105.06 52.39,-204.96 -0.3,-5.06 -0.59,-10.12 13.9,-20.3 109.16,-56.62 94.66,-173.22 -15.61,-249.54 -115.24,-378.46 -378.61,-609.59 -741.15,-738.65 -362.09,-128.9 -728.78,-245.43 -1087.76,-382.31 -447.03,-170.46 -756.06,-488.12 -934.22,-932.56 -13.43,-33.5 -29.15,-66.07 -35.54,-111.52 12.72,-31.39 22.51,-50.84 20.79,-69.21 -18.69,-199.49 -44.96,-398.44 -57.31,-598.28 -9.43,-152.65 -1.87,-306.35 -1.87,-462.82 33.01,-1.99 55.47,-3.34 77.93,-4.69 175.33,405.84 502.08,657.38 884.54,878.56 47.25,29.83 86.6,41.31 125.95,52.78 26.27,9.31 52.54,18.63 90.53,40.86 41.91,22.37 72.09,31.82 102.28,41.28 9.25,-1.98 17.98,-0.62 35.63,15.13 107.84,51.98 204.96,96.42 304.87,133.24 499.86,184.21 1024.88,219.55 1548.79,235.52 304.14,9.27 610.99,-21.75 914.54,-54.18 363.92,-38.88 721.94,-113.81 1057.55,-268.5 32.79,-15.11 55.13,-52.88 82.33,-80.13 13.48,-8.78 26.96,-17.56 54.8,-22.3 37.13,-8.2 59.9,-20.45 82.67,-32.7 75.11,-37.9 150.22,-75.8 243.94,-110.9 36.04,7.62 57.87,21.74 70.23,15.88 219.39,-104.04 418.45,-237.06 568.54,-431.07 17.63,-22.8 -2.2,-74.59 -4.67,-112.93 0,0 1.77,1.96 9.63,1.15 20.57,-28.72 33.28,-56.62 45.99,-84.52 30.97,-69.17 61.93,-138.35 111.46,-212.65 47.51,-4.92 76.46,-4.71 105.41,-4.5 103.81,677.99 9.64,1305.38 -485.63,1821.23 -205.03,213.55 -467.1,340.46 -744.94,435.39 -346.66,118.45 -696.8,227.99 -1038.34,359.77 -311.1,120.04 -655.81,481.66 -614.2,880.97 26.63,255.6 143.11,455.19 364.15,589.58 54.14,32.92 112.39,59.09 178.53,103.08 92.18,104.36 373.59,140.84 511.63,72.24 48.28,-23.99 85.85,-69.52 128.31,-105.21 0,0 12.24,-3.73 27.46,-0.89 104.49,-34.07 198.09,-63.33 281.59,-110.48 61.03,-34.46 95.88,-95.8 46.44,-170.16 0,0 1.78,1.96 9.64,1.15 20.57,-28.72 33.28,-56.62 45.99,-84.52 8.48,-21.3 16.96,-42.6 38.1,-72.43 16.52,-28.83 20.39,-49.15 24.25,-69.46 0,0 -1.29,-13.15 11.22,-18.89 13.84,-24.83 15.17,-43.91 16.5,-63 -0.3,-4.82 -0.6,-9.64 14.09,-19.24 141.88,-52.46 88.93,-98.45 13.69,-144.24 -0.32,-5.06 -0.65,-10.12 13.85,-20.31 107.04,-56.11 90.31,-205.32 -15.69,-277.04 -54.42,-181.63 -127.94,-350.81 -308.76,-460.31 42.69,-65.53 83.8,-128.64 124.44,-191.03 288.61,95.41 481.67,521.85 421.98,1020 -55.04,459.29 -367.95,890.95 -911.86,969.56 -506.22,73.16 -1004.91,-88.3 -1216.19,-671.49 12.95,-15.29 20.15,-17.76 20.17,-20.26 1.07,-168 2.77,-336.03 -0.3,-503.96 -0.23,-12.88 -34.46,-25.14 -52.89,-37.69 -0.32,-4.84 -0.65,-9.69 11.46,-20.35 13.1,-31.74 13.78,-57.65 14.45,-83.57 29,-61.33 58,-122.67 104.89,-189.19 108,-2.96 118.72,-45.84 80.96,-116.24 0,0 1.77,1.98 11.33,1.48 177.7,-30.31 248.52,-182.27 360.17,-282.68 5.77,-5.19 -8.46,-32.61 -13.37,-49.69 35.2,-18.39 70.4,-36.78 126.89,-54.78 252.2,-63.13 483.67,-124.8 713.33,-192.57 27.86,-8.22 46.01,-49.36 68.66,-75.25 13.5,-8.79 27,-17.58 56.83,-21.64 111.44,19.67 200.36,19.38 245.67,-88.36 13.48,-8.78 26.96,-17.56 54.8,-22.3 37.13,-8.2 59.9,-20.45 82.67,-32.7 56.87,-28.75 113.75,-57.51 189.2,-83.39 128.97,14.17 434.71,-173.83 459.57,-273.85 6.61,-26.61 -11.48,-59.35 -18.24,-89.28 0,0 1.78,1.97 10.93,1.44 100.86,2.07 107.46,-43.32 72.19,-112.31 44.76,-94.13 89.53,-188.26 147.17,-291.54 28.15,-16.73 53.09,-20.86 57.22,-32.43 42.81,-119.89 86.28,-239.94 118.52,-362.83 5.08,-19.37 -44.87,-53.18 -69.37,-80.31 -29.08,4.72 -68.29,-1.1 -85.76,15.69 -433,416.15 -975.83,606.95 -1544.57,719.86 -389.58,77.34 -789.37,111 -1186.32,141.91 -806.49,62.81 -1590.39,-64.29 -2351.09,-330.88 -327.84,-114.9 -623.93,-291.58 -882.08,-527.53 -18.79,-17.18 -41.02,-30.59 -86.43,-63.97 47.27,350.14 133.71,657.23 353.7,900.52 133.97,148.16 307.07,260.94 470.46,407.94 47.22,29.8 86.57,41.27 125.91,52.75 26.27,9.31 52.54,18.62 89.98,41.12 69.1,31.78 127.03,50.37 184.96,68.96 9.3,-2.37 18.11,-1.15 35.97,14.72 256.96,132.82 506.32,248.51 788.88,260.48 9.32,-2.53 18.17,-1.39 37,14.72 40.65,20.73 70.83,30.18 101.02,39.63 311.86,80.33 744.54,581.79 732.07,965.09 -8.62,264.9 -55.21,499.17 -227.18,708.02 -191.68,232.79 -444.24,333.68 -730.83,364.34 -312.17,33.4 -595.78,-49.19 -839.55,-248.56 -177.11,-144.85 -283.43,-338.37 -341.54,-567.8 13.55,-40.39 20.82,-67.56 21.98,-94.98 6.17,-145.91 -30.62,-290.28 6.46,-439.1 20.92,-83.97 -3.87,-179.32 -8.07,-269.55 -2.45,-9.63 0.18,-17.58 22.78,-26.88 27.62,-30.7 40.35,-58.37 53.08,-86.05 0,0 1.74,1.98 11.25,1.5 172.56,-30.24 259.81,-139.13 209.37,-249.87 38.97,0.44 143.08,74.24 152.49,121.2 5.87,29.29 -3.58,78.41 -24.47,93.84 -471.51,348.28 -288.98,1233.92 276.16,1462.79 16.58,6.72 31.77,16.86 59.41,39.02 161.1,166.02 339.39,102.98 508.38,71.74 47.89,-8.85 86.52,-67.74 129.4,-103.69z"/>
  <path class="fil0" d="M1066.56 5494.87c-0.39,-5.02 -0.78,-10.04 14.04,-20.31 152.48,-62.4 94.3,-117.4 13.37,-172.15 -0.42,-5.06 -0.84,-10.12 13.28,-20.31 36.05,-17.32 57.56,-29.51 79.08,-41.7 -21.66,-25.15 -43.32,-50.31 -64.98,-75.46 -0.45,-5.08 -0.91,-10.17 12.41,-20.33 32.56,-12.78 51.34,-20.48 70.12,-28.18 -18.39,-20.5 -36.79,-41.01 -55.19,-61.51 -0.28,-5.14 -0.57,-10.28 12.69,-20.29 72.15,-35.33 106.34,-205 68.2,-276.16 35,-100 102.33,-142.88 197.14,-85.58 31.06,18.76 61.22,89.95 49.39,121 -148.58,389.94 -212.82,796.46 -162.06,1205.43 57.74,465.15 208.58,901.64 621.93,1188.35 61.22,42.47 137.15,63.74 218.28,108.39 17.18,20.98 20.67,31.56 27.76,35.3 359.43,189.66 726.22,190.16 1099.57,43.94 62.84,-24.61 129.13,-40.41 193.83,-60.28 112.06,203.28 203.55,422.17 342.36,605.15 122.35,161.28 297.57,282.46 457.9,438.4 51.67,23.39 109.17,50.45 135.5,32.3 90.66,-62.47 176.41,-135.2 251.24,-215.89 27.76,-29.93 20.15,-92.65 28.67,-140.43 108,-160.65 216,-321.31 337.01,-491.26 80.68,-41.99 112.54,-84.6 52.77,-152.64 -0.22,-4.82 -0.43,-9.65 14.89,-18.94 84.76,2.81 156.41,1.06 222.77,18.92 292.74,78.8 588.06,120.59 886.82,50.28 60.21,-14.17 108.36,-79.56 162.07,-121.34 75.09,-37.9 150.19,-75.8 244.28,-110.75 156.13,28.31 305.16,-98.86 279.39,-219.26 89.89,-160.97 179.79,-321.93 282.33,-491.74 29.57,-20.88 57.57,-29.94 61.74,-45.42 51.93,-192.85 130.06,-384.91 141.47,-580.66 11.54,-198.1 -36.45,-401.46 -73.38,-599.73 -15.56,-83.51 -69.63,-159.85 -106.19,-239.45 -15.85,-47.16 -30.97,-94.57 -47.67,-141.43 -72.29,-202.84 -61.76,-218.67 185.7,-239.32 47.15,177.05 105.63,356.92 142.02,541.15 87.95,445.33 85.29,887.86 -61.16,1324.58 -130.89,390.33 -360.29,707.74 -717.07,909.37 -169.02,95.51 -370.04,164.03 -562.34,181.63 -277.98,25.44 -561.21,-6.49 -865.76,-14.57 -206.8,422.28 -543.81,775.76 -960.01,1067.17 -287.34,-163.79 -524.33,-385.57 -717.13,-653.39 -85.87,-119.28 -149.82,-254.28 -234.78,-374.31 -23.13,-32.67 -89.15,-56.76 -130.91,-51.09 -441.91,60 -879.91,86.41 -1291.7,-131.93 -318.07,-168.64 -548.65,-417.06 -671,-761.01 -22.44,-63.09 -61.41,-120.3 -84.49,-192.22 14.83,-17.96 28.11,-25.85 27.03,-29.6 -79.48,-276.45 -62.09,-560.15 -69.02,-842.48 -1.08,-43.99 -47.04,-86.88 -72.24,-130.28z"/>
  <g>
   <path class="fil1" d="M5718.16 6458.18c-194.93,45.91 -366.74,33.17 -538.3,-63.85 -230.91,-130.59 -279.19,-502.26 -101.56,-716.39 122.02,-147.09 264.59,-269.63 463.79,-302.3 204.24,-33.5 385.19,20.1 523.46,170.55 146.04,158.9 140.26,343.7 64,539.47 -74.98,192.45 -229.81,286.61 -411.39,372.52l0 0zm-423.04 -497.61c-5.07,84.82 24.5,141.15 118.69,144.38 102.22,3.51 249.99,-106.62 264.53,-204.92 13.06,-88.28 6.8,-160.46 -120.62,-155.22 -137.91,5.66 -199.41,96.04 -262.6,215.76z"/>
  </g>
  <g>
   <path class="fil1" d="M2593.31 6276.67c-46.69,-66.54 -93.21,-122.38 -124.41,-185.76 -169.13,-343.52 17.48,-704.88 427.45,-724.36 312.35,-14.84 608.81,139.44 708.95,491.41 87.12,306.23 -158.21,554.63 -389.78,607.29 -244.6,55.62 -430.96,-50.39 -622.21,-188.59l0 0zm393.91 -528.52c-37.09,30.15 -74.19,60.3 -105.61,85.83 28.73,51.28 50.66,94.98 76.74,136.04 56.56,89.05 132.48,149.74 244.42,133.74 80.73,-11.54 132.31,-43.49 94.41,-145.3 -51.1,-137.26 -134.84,-205.53 -309.96,-210.32z"/>
  </g>
  <path class="fil1" d="M3948.49 7508.57c106.48,-209.74 212.3,-409.02 333.67,-637.58 46.11,87.73 80.87,152.04 113.95,217.18 62.2,122.47 125.56,244.44 183.35,368.98 12.04,25.94 13.44,68.27 0.34,92.59 -96.45,179.03 -197.83,355.41 -294.75,527.45 -111.49,-184.54 -224.35,-371.35 -336.56,-568.63z"/>
  <path class="fil0" d="M6274.5 3578.62c-16.77,28.2 -39.11,65.97 -71.9,81.08 -335.6,154.7 -693.63,229.63 -1057.55,268.5 -303.55,32.43 -610.4,63.45 -914.54,54.18 -523.91,-15.96 -1048.93,-51.3 -1548.79,-235.52 -99.92,-36.82 -197.03,-81.26 -298.52,-130.99 331.17,65.43 662.97,154.57 1000.29,210.15 429.8,70.8 862.05,95.96 1301.37,59 421.42,-35.45 835.74,-93.02 1243.51,-200.96 113.34,-30 223.87,-70.64 346.12,-105.44z"/>
  <path class="fil0" d="M7196.22 5043.37c37.42,68.79 91.49,145.13 107.05,228.65 36.93,198.26 84.93,401.63 73.38,599.73 -11.41,195.75 -89.54,387.81 -141.47,580.66 -4.17,15.48 -32.17,24.54 -57.35,37.09 148.45,-475.44 137.26,-954.41 18.39,-1446.13z"/>
  <path class="fil0" d="M6356.57 7318.73c-42.84,42.63 -90.99,108.02 -151.2,122.19 -298.76,70.31 -594.08,28.53 -886.82,-50.28 -66.37,-17.86 -138.01,-16.11 -219,-25.11 -1.03,-35.04 9.71,-68.37 23.28,-110.48 405.96,137.86 810.37,196.25 1233.74,63.67z"/>
  <path class="fil0" d="M3475.97 7304.87c-65.24,30.04 -131.54,45.83 -194.37,70.44 -373.35,146.22 -740.14,145.71 -1099.57,-43.94 -7.1,-3.74 -10.59,-14.33 -18.82,-30.5 172.36,26.3 348.06,90.65 523.13,88.97 212.78,-2.04 424.83,-61.07 637.65,-92.34 49.9,-7.33 101.63,-2.19 151.98,7.37z"/>
  <path class="fil0" d="M1136.11 2576.16c-20.65,10.21 -43.11,11.56 -76.11,13.55 0,156.46 -7.56,310.17 1.87,462.82 12.35,199.83 38.62,398.79 57.31,598.28 1.72,18.37 -8.07,37.82 -19.81,59.15 -150.37,-407.39 -154.92,-821.98 -55.87,-1261.67 38.35,50.27 64.57,84.64 92.61,127.87z"/>
  <path class="fil0" d="M1064.33 5506.07c27.43,32.19 73.39,75.08 74.46,119.07 6.93,282.33 -10.46,566.03 69.02,842.48 1.08,3.75 -12.2,11.64 -26,19.9 -131.75,-311.81 -127.76,-640.79 -117.48,-981.45z"/>
  <path class="fil0" d="M7292.3 2889.74c10.59,34.16 30.42,85.94 12.79,108.74 -150.08,194.01 -349.15,327.03 -568.54,431.07 -12.36,5.86 -34.19,-8.26 -60.47,-17.07 196.8,-175.51 402.45,-347.03 616.22,-522.74z"/>
  <path class="fil0" d="M2024.69 5428.91c6.59,79.78 31.38,175.14 10.46,259.11 -37.08,148.83 -0.29,293.19 -6.46,439.1 -1.16,27.43 -8.43,54.6 -20.99,84.79 -107.8,-258.72 -80.37,-516.63 17,-783z"/>
  <path class="fil0" d="M4682.07 8036.17c0.52,46.16 8.12,108.88 -19.64,138.81 -74.83,80.69 -160.57,153.42 -251.24,215.89 -26.34,18.15 -83.83,-8.91 -129.85,-24.71 128.69,-115.77 260.19,-222.08 400.73,-330z"/>
  <path class="fil0" d="M5944.4 4733.65c-12.12,26.81 -30.26,67.95 -58.13,76.18 -229.66,67.77 -461.13,129.44 -704.52,192.39 178.28,-72.08 368.57,-144.85 560.04,-214.41 62.45,-22.69 127.96,-36.97 202.6,-54.16z"/>
  <path class="fil0" d="M5861.62 6741.2c-31.65,36.57 -69.23,82.09 -117.51,106.08 -138.04,68.6 -419.44,32.13 -502.98,-67.61 204.14,15.07 409.65,45.06 620.49,-38.47z"/>
  <path class="fil0" d="M3414.12 6741.2c-32.07,36.82 -70.7,95.71 -118.59,104.56 -168.99,31.24 -347.28,94.28 -499.74,-67.16 202.4,23.02 407.3,41.26 618.33,-37.41z"/>
  <path class="fil0" d="M7017.3 4127.25c14.88,25.73 32.98,58.47 26.36,85.08 -24.86,100.03 -330.6,288.03 -449.96,272.7 132.52,-120.55 274,-237.06 423.6,-357.78z"/>
  <path class="fil0" d="M3269.5 4937.81c-276.36,-3.13 -525.72,-118.82 -776.26,-249.39 254.61,74.29 512.34,157.43 776.26,249.39z"/>
  <path class="fil0" d="M4473.6 5807.31c20.99,2.63 55.22,14.89 55.45,27.77 3.07,167.94 1.36,335.96 0.3,503.96 -0.02,2.51 -7.21,4.97 -19.16,10.36 -73.32,-172.28 -95.91,-349.93 -36.59,-542.1z"/>
  <path class="fil0" d="M5037.61 5061.44c13.36,12.8 27.58,40.22 21.81,45.41 -111.65,100.41 -182.46,252.37 -361.26,281.92 103.23,-107.87 217.11,-215.46 339.44,-327.33z"/>
  <path class="fil0" d="M6219.8 6464.75c57.56,70.17 22.71,131.51 -38.32,165.96 -83.5,47.14 -177.1,76.4 -275.3,109.3 95.87,-93.04 200.69,-182.06 313.62,-275.27z"/>
  <path class="fil0" d="M7360.41 3256.43c26.17,15.78 76.12,49.59 71.04,68.96 -32.24,122.9 -75.71,242.94 -118.52,362.83 -4.13,11.56 -29.06,15.7 -52.6,23.78 27.3,-147.73 62.85,-295.98 100.08,-455.57z"/>
  <path class="fil0" d="M2315.41 5061.49c58.6,106.42 -28.66,215.3 -202.3,244.79 57.65,-80.33 125.91,-160.4 202.3,-244.79z"/>
  <path class="fil0" d="M6882.03 6991.22c34.85,118.74 -114.18,245.91 -260.56,216.41 77.67,-74.34 164.57,-144.54 260.56,-216.41z"/>
  <path class="fil0" d="M3717.22 6547.31c34.58,110.29 -60.06,191.5 -203.33,165.28 58.94,-56.41 127.04,-108.72 203.33,-165.28z"/>
  <path class="fil0" d="M6398.13 5703.88c107.44,60.41 124.18,209.61 20.94,259.15 -14.81,-83.58 -18.6,-165.7 -20.94,-259.15z"/>
  <path class="fil0" d="M3896.31 5896.19c111.03,65.2 125.53,181.8 20.18,231.84 -14.3,-74.55 -17.62,-147.63 -20.18,-231.84z"/>
  <path class="fil0" d="M1227.2 4768.84c40.51,60.78 6.31,230.46 -62.06,259.05 13.39,-84.13 36.54,-166.4 62.06,-259.05z"/>
  <path class="fil0" d="M6247.21 4623.59c-35.09,108.72 -124.01,109.01 -227.38,88.78 66.87,-33.45 142.02,-61.61 227.38,-88.78z"/>
  <path class="fil0" d="M3896.65 6163.96c157.79,90.84 -1.37,126.69 -46.22,188.02 9.12,-59.3 26.61,-119.13 46.22,-188.02z"/>
  <path class="fil0" d="M1091.81 5312.58c83.09,44.58 141.27,99.57 -7.52,155.39 -5.89,-49.3 -0.26,-97.26 7.52,-155.39z"/>
  <path class="fil0" d="M7574.53 2574.37c-30.56,10.44 -59.52,10.23 -99.33,9.75 14.17,-45.1 39.21,-89.93 64.25,-134.75 9.11,1.8 18.23,3.6 27.35,5.4 3.11,36.32 6.22,72.64 7.73,119.6z"/>
  <path class="fil0" d="M6399.28 5999.69c77.38,36.02 130.32,82.01 -7.89,128.22 -5.64,-40.46 0.06,-79.46 7.89,-128.22z"/>
  <path class="fil0" d="M7100.49 4016.42c43.32,64.75 36.72,110.14 -65.23,107.31 12.22,-34.51 34.7,-68.79 65.23,-107.31z"/>
  <path class="fil0" d="M3800.49 6436.42c43.32,64.75 36.72,110.14 -65.23,107.31 12.22,-34.51 34.7,-68.79 65.23,-107.31z"/>
  <path class="fil0" d="M4679.89 5392.17c45.8,66.28 35.08,109.15 -65.29,106.81 12.24,-34.31 34.75,-68.5 65.29,-106.81z"/>
  <path class="fil0" d="M5077.53 7398.53c63.13,60.17 31.26,102.78 -44.68,135.98 8.26,-42.37 24.8,-85.24 44.68,-135.98z"/>
  <path class="fil0" d="M2445.02 4662.87c-52.1,-10.01 -110.03,-28.6 -171.43,-56.49 52.89,9.77 109.24,28.84 171.43,56.49z"/>
  <path class="fil0" d="M1119.22 5174.11c23.77,15.98 45.43,41.13 67.09,66.29 -21.52,12.19 -43.03,24.38 -75.58,34.94 -5.23,-31.77 0.57,-61.91 8.48,-101.22z"/>
  <path class="fil0" d="M1146.52 5063.2c20.56,12.22 38.95,32.72 57.35,53.23 -18.78,7.7 -37.57,15.4 -66.84,21.26 -4.55,-23.3 1.39,-44.76 9.49,-74.49z"/>
  <path class="fil0" d="M2170.16 4552.85c-33.59,-2.96 -72.94,-14.43 -115.69,-36 34.38,2.43 72.15,14.96 115.69,36z"/>
  <path class="fil0" d="M7348.17 2806.32c-4.83,23.75 -17.54,51.66 -39.21,79.63 4.47,-25.11 17.9,-50.3 39.21,-79.63z"/>
  <path class="fil0" d="M6275.67 6381.32c-4.83,23.76 -17.54,51.66 -39.21,79.63 4.47,-25.11 17.9,-50.3 39.21,-79.63z"/>
  <path class="fil0" d="M2095.07 5309.58c-4.86,23.63 -17.59,51.3 -39.28,79.13 4.5,-24.93 17.95,-50.01 39.28,-79.13z"/>
  <path class="fil0" d="M2142.66 3507.85c-33.59,-2.96 -72.94,-14.43 -115.69,-36 34.38,2.43 72.15,14.96 115.69,36z"/>
  <path class="fil0" d="M3408.44 4992.8c-24.91,-1.25 -55.09,-10.7 -89.29,-29.19 25.33,0.97 54.67,10.98 89.29,29.19z"/>
  <path class="fil0" d="M2335.95 3590.3c-24.91,-1.25 -55.1,-10.7 -89.29,-29.19 25.33,0.97 54.67,10.98 89.29,29.19z"/>
  <path class="fil0" d="M6413.52 3523.41c-13.9,13.42 -36.67,25.67 -65.75,33.29 14.75,-14.57 35.82,-24.52 65.75,-33.29z"/>
  <path class="fil0" d="M6386.02 4568.41c-13.9,13.42 -36.67,25.67 -65.75,33.29 14.75,-14.57 35.82,-24.52 65.75,-33.29z"/>
  <path class="fil0" d="M6343.16 6241.74c-1.12,13.86 -4.98,34.17 -17.46,55.13 -0.84,-15.79 6.94,-32.23 17.46,-55.13z"/>
  <path class="fil0" d="M4500.09 5703.31c1.3,16.08 0.63,42 -8.87,67.41 -3.59,-19.53 1.65,-38.55 8.87,-67.41z"/>
  <path class="fil0" d="M6370.78 6160.69c1.52,11.8 0.19,30.88 -10.65,49.82 -3.74,-14.27 2.03,-28.4 10.65,-49.82z"/>
  <path class="fil2" d="M5295.54 5949.65c62.78,-108.8 124.28,-199.18 262.19,-204.84 127.42,-5.23 133.68,66.95 120.62,155.22 -14.54,98.3 -162.31,208.43 -264.53,204.92 -94.2,-3.24 -123.76,-59.56 -118.28,-155.3z"/>
  <path class="fil2" d="M2998.09 5747.86c164.26,5.07 248,73.34 299.1,210.6 37.9,101.81 -13.68,133.76 -94.41,145.3 -111.94,16 -187.85,-44.69 -244.42,-133.74 -26.08,-41.06 -48.01,-84.76 -76.74,-136.04 31.42,-25.54 68.51,-55.69 116.47,-86.12z"/>
 </g>
</svg>
