<svg width="29" height="36" viewBox="0 0 29 36" fill="none" xmlns="http://www.w3.org/2000/svg">
<path d="M28.4375 16.3926C28.4286 16.3734 28.4198 16.3542 28.4094 16.3365L23.961 8.42401V2.83024C23.961 2.20393 23.7122 1.60328 23.2693 1.16041C22.8265 0.717549 22.2258 0.46875 21.5995 0.46875H7.43056C6.80426 0.46875 6.20361 0.717549 5.76074 1.16041C5.31788 1.60328 5.06908 2.20393 5.06908 2.83024V8.42697L0.620623 16.3365C0.610292 16.3542 0.601436 16.3734 0.591105 16.3926C0.39838 16.7805 0.316517 17.2142 0.35454 17.6457C0.392562 18.0772 0.548993 18.4899 0.80659 18.8382L0.822826 18.8588L13.5808 35.4306C13.6911 35.5736 13.8327 35.6894 13.9948 35.7691C14.1569 35.8488 14.3351 35.8903 14.5158 35.8903C14.6964 35.8903 14.8746 35.8488 15.0367 35.7691C15.1988 35.6894 15.3405 35.5736 15.4508 35.4306L28.2072 18.8588L28.2235 18.8382C28.4811 18.4899 28.6375 18.0771 28.6753 17.6455C28.713 17.2139 28.6307 16.7803 28.4375 16.3926ZM21.5995 2.83024V7.55322H7.43056V2.83024H21.5995ZM14.515 19.3607C14.1647 19.3607 13.8223 19.2568 13.531 19.0622C13.2398 18.8676 13.0128 18.5909 12.8787 18.2673C12.7447 17.9437 12.7096 17.5876 12.7779 17.244C12.8463 16.9004 13.015 16.5849 13.2627 16.3372C13.5104 16.0895 13.8259 15.9208 14.1695 15.8525C14.5131 15.7841 14.8692 15.8192 15.1928 15.9532C15.5164 16.0873 15.793 16.3143 15.9877 16.6056C16.1823 16.8968 16.2861 17.2392 16.2861 17.5895C16.2861 18.0593 16.0995 18.5098 15.7674 18.8419C15.4352 19.1741 14.9848 19.3607 14.515 19.3607ZM15.6958 31.2419V21.5495C16.6471 21.2658 17.4645 20.6493 17.9985 19.8125C18.5326 18.9758 18.7476 17.9748 18.6043 16.9925C18.461 16.0102 17.9689 15.1124 17.2181 14.4631C16.4672 13.8138 15.5077 13.4565 14.515 13.4565C13.5224 13.4565 12.5629 13.8138 11.812 14.4631C11.0611 15.1124 10.569 16.0102 10.4257 16.9925C10.2824 17.9748 10.4974 18.9758 11.0315 19.8125C11.5656 20.6493 12.383 21.2658 13.3343 21.5495V31.2404L2.70759 17.4419L6.94203 9.9147H22.0895L26.3225 17.4419L15.6958 31.2419Z" fill="#260EB9"/>
</svg>
