<svg width="19" height="19" viewBox="0 0 19 19" fill="none" xmlns="http://www.w3.org/2000/svg">
<path d="M18.5306 3.46996L15.5306 0.469965C15.461 0.400233 15.3783 0.344913 15.2872 0.30717C15.1962 0.269427 15.0986 0.25 15 0.25C14.9014 0.25 14.8038 0.269427 14.7128 0.30717C14.6217 0.344913 14.539 0.400233 14.4694 0.469965L5.46937 9.46996C5.39975 9.53967 5.34454 9.62241 5.3069 9.71345C5.26926 9.8045 5.24992 9.90207 5.25 10.0006V13.0006C5.25 13.1995 5.32902 13.3903 5.46967 13.5309C5.61032 13.6716 5.80109 13.7506 6 13.7506H9C9.09852 13.7507 9.19609 13.7313 9.28714 13.6937C9.37818 13.6561 9.46092 13.6008 9.53063 13.5312L18.5306 4.53122C18.6004 4.46156 18.6557 4.37884 18.6934 4.2878C18.7312 4.19675 18.7506 4.09915 18.7506 4.00059C18.7506 3.90203 18.7312 3.80443 18.6934 3.71338C18.6557 3.62234 18.6004 3.53962 18.5306 3.46996ZM8.68969 12.2506H6.75V10.3109L12.75 4.3109L14.6897 6.25059L8.68969 12.2506ZM15.75 5.19028L13.8103 3.25059L15 2.0609L16.9397 4.00059L15.75 5.19028ZM18 10.0006V17.5006C18 17.8984 17.842 18.2799 17.5607 18.5612C17.2794 18.8426 16.8978 19.0006 16.5 19.0006H1.5C1.10218 19.0006 0.720644 18.8426 0.43934 18.5612C0.158035 18.2799 0 17.8984 0 17.5006V2.50059C0 2.10277 0.158035 1.72123 0.43934 1.43993C0.720644 1.15863 1.10218 1.00059 1.5 1.00059H9C9.19891 1.00059 9.38968 1.07961 9.53033 1.22026C9.67098 1.36091 9.75 1.55168 9.75 1.75059C9.75 1.9495 9.67098 2.14027 9.53033 2.28092C9.38968 2.42157 9.19891 2.50059 9 2.50059H1.5V17.5006H16.5V10.0006C16.5 9.80168 16.579 9.61091 16.7197 9.47026C16.8603 9.32961 17.0511 9.25059 17.25 9.25059C17.4489 9.25059 17.6397 9.32961 17.7803 9.47026C17.921 9.61091 18 9.80168 18 10.0006Z" fill="white"/>
</svg>
